<?xml version="1.0" encoding="UTF-8"?>
<svg version="1.1" xmlns="http://www.w3.org/2000/svg" width="512" height="512">
<path d="M0 0 C168.96 0 337.92 0 512 0 C512 168.96 512 337.92 512 512 C343.04 512 174.08 512 0 512 C0 343.04 0 174.08 0 0 Z " fill="#35415F" transform="translate(0,0)"/>
<path d="M0 0 C4.11866904 3.41761899 8.11313049 6.94494358 12 10.625 C13.175625 11.72714844 13.175625 11.72714844 14.375 12.8515625 C16 15 16 15 15.921875 16.96875 C14.8326913 19.36864628 13.58908653 21.60407491 12.25 23.875 C0.27047487 45.53582002 -2.61553935 71.48513982 4.1875 95.26953125 C8.61217389 109.84630423 14.95462821 122.44676056 25 134 C25.45503906 134.598125 25.91007813 135.19625 26.37890625 135.8125 C39.98108115 153.35321509 63.78911829 163.67943694 85.30078125 166.52734375 C111.99930011 169.48014951 137.51742097 163.57586991 159 147 C162.49420839 144.14769063 165.78455163 141.16238817 169 138 C169.76054687 137.25234375 170.52109375 136.5046875 171.3046875 135.734375 C188.1278941 118.15441517 196.60601657 94.67806353 196.375 70.5625 C196.39240234 68.75168945 196.39240234 68.75168945 196.41015625 66.90429688 C196.37394013 55.62297625 194.53075718 44.83640097 190.25 34.375 C190.00048584 33.76309814 189.75097168 33.15119629 189.49389648 32.52075195 C187.22223965 27.13507582 184.35870382 22.2267506 181.22265625 17.29296875 C180.81917969 16.53628906 180.41570312 15.77960938 180 15 C180.33 14.34 180.66 13.68 181 13 C212.88047733 35.97092618 254.06530615 65.65168192 261.82574987 106.45647097 C266.70583508 137.23480276 264.46314976 169.05892278 262.47402239 200.02958441 C261.86274677 209.65573471 261.45383263 219.27615002 261.17480469 228.91748047 C261.14485421 229.94940692 261.14485421 229.94940692 261.11429867 231.00218037 C261.01504676 234.45676515 260.91902169 237.91143068 260.82459402 241.36615038 C260.04858827 269.60676678 258.71574545 297.80163668 257 326 C216.45940346 330.74500338 175.90959626 333.94531387 135.13539481 335.71157914 C132.81957476 335.81219263 130.50388629 335.91553682 128.18818855 336.01892233 C53.2103052 339.31281791 -11.21070985 338.61962275 -69.52179527 285.91002464 C-82.57300274 273.86560643 -94.55468611 260.91213392 -106.25 247.5625 C-107.07417907 246.6255909 -107.89835814 245.6886818 -108.74751234 244.72338152 C-128.32404064 222.42233302 -146.76663282 199.3526652 -163.84307861 175.08058167 C-164.48512618 174.16862797 -164.48512618 174.16862797 -165.14014441 173.23825097 C-168 169.12534063 -168 169.12534063 -168 168 C-167.05640625 167.90525391 -167.05640625 167.90525391 -166.09375 167.80859375 C-164.80984375 167.62490234 -164.80984375 167.62490234 -163.5 167.4375 C-162.6646875 167.33308594 -161.829375 167.22867188 -160.96875 167.12109375 C-151.97121425 163.72334012 -144.78260261 153.91320832 -138.0625 147.16015625 C-136.93072136 146.02650857 -135.7987188 144.89308441 -134.66650391 143.75987244 C-131.71177989 140.80136149 -128.76007347 137.83985819 -125.809021 134.87768555 C-122.78728529 131.84565275 -119.76265606 128.81650933 -116.73828125 125.78710938 C-110.82271195 119.86087033 -104.91033271 113.93146158 -99 108 C-95.08191071 109.58665473 -92.46564852 112.27822895 -89.56054688 115.24414062 C-89.02994156 115.77766647 -88.49933624 116.31119232 -87.95265198 116.86088562 C-86.80405624 118.01707771 -85.65777645 119.17557416 -84.51356506 120.33610535 C-82.70220246 122.17303107 -80.88463332 124.00360454 -79.06530762 125.8326416 C-74.54886504 130.3758051 -70.04335002 134.92975715 -65.53741455 139.4833374 C-61.72740799 143.33279757 -57.91334198 147.17814699 -54.09376526 151.01811218 C-52.30377573 152.82106118 -50.51991991 154.62993209 -48.73620605 156.43908691 C-47.63758568 157.54497313 -46.53868309 158.65057908 -45.43945312 159.75585938 C-44.94582779 160.25981735 -44.45220245 160.76377533 -43.94361877 161.28300476 C-40.14246753 165.08531478 -37.61852312 166.75310664 -32.3125 167.5625 C-23.53737589 167.20892357 -16.99646975 158.18537464 -11.125 152.4375 C-10.47007568 151.80062256 -9.81515137 151.16374512 -9.14038086 150.50756836 C-4.62454224 145.98235956 -1.38117831 142.04942651 -0.5625 135.5 C-1.37733328 128.9813338 -5.98118639 124.7267234 -10.50292969 120.27001953 C-11.03996017 119.73269699 -11.57699066 119.19537445 -12.1302948 118.64176941 C-13.88945142 116.88399537 -15.65556328 115.13339399 -17.421875 113.3828125 C-18.64970879 112.15871265 -19.87709894 110.93416767 -21.10406494 109.709198 C-24.32182271 106.49904664 -27.54554284 103.2949492 -30.77056885 100.09210205 C-34.06553273 96.81766121 -37.35478479 93.53749364 -40.64453125 90.2578125 C-47.09079669 83.83294415 -53.54337956 77.41446092 -60 71 C-58.41334527 67.08191071 -55.72177105 64.46564852 -52.75585938 61.56054688 C-52.22233353 61.02994156 -51.68880768 60.49933624 -51.13911438 59.95265198 C-49.98292229 58.80405624 -48.82442584 57.65777645 -47.66389465 56.51356506 C-45.82696893 54.70220246 -43.99639546 52.88463332 -42.1673584 51.06530762 C-37.6241949 46.54886504 -33.07024285 42.04335002 -28.5166626 37.53741455 C-24.66720243 33.72740799 -20.82185301 29.91334198 -16.98188782 26.09376526 C-15.17893882 24.30377573 -13.37006791 22.51991991 -11.56091309 20.73620605 C-10.45502687 19.63758568 -9.34942092 18.53868309 -8.24414062 17.43945312 C-7.74018265 16.94582779 -7.23622467 16.45220245 -6.71699524 15.94361877 C-2.88743107 12.11522168 -0.91322849 9.13228486 -0.375 3.75 C-0.189375 1.89375 -0.189375 1.89375 0 0 Z " fill="#232C43" transform="translate(255,186)"/>
<path d="M0 0 C19.57640782 17.03086873 33.49582509 39.16383471 35.70019531 65.48608398 C35.83338938 69.10328953 35.86638563 72.70085146 35.8359375 76.3203125 C35.82457764 78.22707764 35.82457764 78.22707764 35.81298828 80.17236328 C35.65105694 89.39063002 34.72599778 97.22700927 31.3984375 105.8828125 C30.97433594 107.11386719 30.55023438 108.34492188 30.11328125 109.61328125 C25.23880346 123.25938444 17.47354295 134.48816079 7.3984375 144.8828125 C6.8725 145.48222656 6.3465625 146.08164062 5.8046875 146.69921875 C-9.47328758 163.49719645 -34.33918407 173.00896199 -56.61328125 174.22265625 C-84.95386796 175.09408408 -110.31692084 166.27604633 -131.31640625 147.1015625 C-149.73738563 129.49319425 -160.88213815 104.82198625 -161.8046875 79.375 C-162.27749997 51.47607207 -152.53435209 26.70437416 -133.24462891 6.50537109 C-96.98333246 -29.30333265 -39.47294635 -32.12362901 0 0 Z " fill="#1ABB9B" transform="translate(416.6015625,180.1171875)"/>
<path d="M0 0 C4.47828875 2.6220904 8.10772623 5.82781365 11.72998047 9.50292969 C12.26730301 10.03996017 12.80462555 10.57699066 13.35823059 11.1302948 C15.11600463 12.88945142 16.86660601 14.65556328 18.6171875 16.421875 C19.84128735 17.64970879 21.06583233 18.87709894 22.290802 20.10406494 C25.50095336 23.32182271 28.7050508 26.54554284 31.90789795 29.77056885 C35.18233879 33.06553273 38.46250636 36.35478479 41.7421875 39.64453125 C48.16705585 46.09079669 54.58553908 52.54337956 61 59 C64.87033361 57.42338639 67.4591092 54.79769519 70.33178711 51.86352539 C70.85103256 51.34135941 71.37027802 50.81919342 71.90525818 50.28120422 C73.0292972 49.14956922 74.15102015 48.01563001 75.27067375 46.87965584 C77.04449879 45.08025385 78.82454061 43.28721754 80.6063385 41.49571228 C85.03053588 37.04480106 89.44382717 32.58312545 93.85748291 28.12176514 C97.5882671 24.35147783 101.32314347 20.58533565 105.06353951 16.82458305 C106.81416535 15.06102435 108.55863959 13.2915329 110.30296326 11.52174377 C111.38128307 10.43615559 112.45988654 9.35084907 113.53881836 8.26586914 C114.01949768 7.77485718 114.500177 7.28384521 114.99542236 6.7779541 C118.9856324 2.78650885 122.19436542 0.29600567 127.8125 -0.625 C131.38349612 -0.47130632 133.02927474 0.53204351 135.640625 2.92578125 C136.33389893 3.56 137.02717285 4.19421875 137.74145508 4.84765625 C141.86591646 8.77817745 145.91824102 12.77461897 149.9375 16.8125 C150.79923828 17.67037109 151.66097656 18.52824219 152.54882812 19.41210938 C153.36673828 20.23130859 154.18464844 21.05050781 155.02734375 21.89453125 C155.76718506 22.63550049 156.50702637 23.37646973 157.26928711 24.13989258 C160.13697887 27.22198363 160.18862756 29.58009655 160.42578125 33.734375 C159.34736437 39.47274006 154.51820373 43.76668586 150.49707031 47.72998047 C149.96003983 48.26730301 149.42300934 48.80462555 148.8697052 49.35823059 C147.11054858 51.11600463 145.34443672 52.86660601 143.578125 54.6171875 C142.35029121 55.84128735 141.12290106 57.06583233 139.89593506 58.290802 C136.67817729 61.50095336 133.45445716 64.7050508 130.22943115 67.90789795 C126.93446727 71.18233879 123.64521521 74.46250636 120.35546875 77.7421875 C113.90920331 84.16705585 107.45662044 90.58553908 101 97 C102.58665473 100.91808929 105.27822895 103.53435148 108.24414062 106.43945312 C108.77766647 106.97005844 109.31119232 107.50066376 109.86088562 108.04734802 C111.01707771 109.19594376 112.17557416 110.34222355 113.33610535 111.48643494 C115.17303107 113.29779754 117.00360454 115.11536668 118.8326416 116.93469238 C122.71620601 120.79541535 126.60753062 124.6482581 130.5 128.5 C135.01098644 132.96378732 139.518733 137.43074522 144.01811218 141.90623474 C145.82106118 143.69622427 147.62993209 145.48008009 149.43908691 147.26379395 C150.54497313 148.36241432 151.65057908 149.46131691 152.75585938 150.56054688 C153.25981735 151.05417221 153.76377533 151.54779755 154.28300476 152.05638123 C157.92767823 155.69994396 159.7938711 158.17919469 160.375 163.3125 C159.49239547 171.9914445 153.05756833 177.37473313 147.125 183.1875 C146.33480469 183.98091797 145.54460937 184.77433594 144.73046875 185.59179688 C134.9773477 195.25566308 134.9773477 195.25566308 129.875 196.53125 C128.946875 196.51578125 128.946875 196.51578125 128 196.5 C127.38125 196.5103125 126.7625 196.520625 126.125 196.53125 C120.47875758 195.1196894 116.24309553 190.52812786 112.27001953 186.49707031 C111.73269699 185.96003983 111.19537445 185.42300934 110.64176941 184.8697052 C108.88399537 183.11054858 107.13339399 181.34443672 105.3828125 179.578125 C104.15871265 178.35029121 102.93416767 177.12290106 101.709198 175.89593506 C98.49904664 172.67817729 95.2949492 169.45445716 92.09210205 166.22943115 C88.81766121 162.93446727 85.53749364 159.64521521 82.2578125 156.35546875 C75.83294415 149.90920331 69.41446092 143.45662044 63 137 C59.08315757 138.5852027 56.47522696 141.27520219 53.57641602 144.24414062 C53.04741699 144.77766647 52.51841797 145.31119232 51.97338867 145.86088562 C50.82809896 147.01711359 49.68509445 148.17560867 48.54413033 149.33610535 C46.73705192 151.17338602 44.92334287 153.0038754 43.10765076 154.8326416 C37.94754142 160.0324727 32.80022542 165.24490292 27.65600586 170.46044922 C24.50654406 173.65264736 21.34978812 176.83748608 18.1886425 180.01811218 C16.98686257 181.23045176 15.78800632 182.44569689 14.59216499 183.66389465 C12.91921057 185.36807768 11.23720624 187.06282734 9.55297852 188.75585938 C9.06294846 189.25981735 8.5729184 189.76377533 8.06803894 190.28300476 C4.347398 193.9937506 1.25582644 195.71202216 -3.9375 196.375 C-11.98653584 195.38940378 -17.79134647 187.50554263 -23.1875 182.0625 C-24.08919922 181.16853516 -24.99089844 180.27457031 -25.91992188 179.35351562 C-26.78552734 178.48533203 -27.65113281 177.61714844 -28.54296875 176.72265625 C-29.32696045 175.93640869 -30.11095215 175.15016113 -30.91870117 174.34008789 C-33.94386488 170.93877479 -35.79622111 168.20003124 -36.5625 163.6875 C-35.06856999 153.89395881 -24.59982775 146.34123326 -17.8203125 139.625 C-16.6401762 138.44860067 -15.46048573 137.27175393 -14.28121948 136.09448242 C-11.19830932 133.01915487 -8.10943796 129.94988504 -5.01922607 126.88189697 C-1.85810698 123.74135291 1.29725426 120.59503517 4.453125 117.44921875 C10.62984009 111.29385862 16.81287368 105.14489501 23 99 C21.42481755 95.13087869 18.80080705 92.55044703 15.86352539 89.68408203 C15.08027641 88.90762329 15.08027641 88.90762329 14.28120422 88.11547852 C13.14953335 86.99474537 12.0155955 85.87629771 10.87965584 84.75989151 C9.0798976 82.99035202 7.28694623 81.21416991 5.49571228 79.43600464 C0.40250222 74.38249776 -4.70327383 69.34175514 -9.81225586 64.30419922 C-12.93965191 61.21960362 -16.05963642 58.12766348 -19.17541695 55.03133774 C-20.36180215 53.85549523 -21.55109161 52.68257531 -22.74336052 51.51269913 C-24.41385975 49.87352228 -26.07483635 48.22521444 -27.73413086 46.57470703 C-28.22514282 46.09762299 -28.71615479 45.62053894 -29.2220459 45.1289978 C-33.19250035 41.14779211 -35.48665352 37.22450142 -36.75 31.75 C-35.65454195 26.27270977 -32.5195895 23.48707221 -28.62353516 19.61767578 C-26.72132694 17.72233267 -24.85190738 15.79681504 -22.98046875 13.87109375 C-21.55090109 12.41266735 -20.11990522 10.95563956 -18.6875 9.5 C-17.99398437 8.79302979 -17.30046875 8.08605957 -16.5859375 7.35766602 C-15.92207031 6.69307373 -15.25820312 6.02848145 -14.57421875 5.34375 C-13.98213623 4.74755859 -13.39005371 4.15136719 -12.7800293 3.53710938 C-8.71195251 0.02420148 -5.34912502 -0.55335776 0 0 Z " fill="#E14F41" transform="translate(95,158)"/>
<path d="M0 0 C9.22701672 7.27892317 15.74205486 17.98446826 19.09375 29.26171875 C20.27550143 39.83445484 20.96101185 52.07828994 16.38671875 61.8828125 C15.76603516 63.22859375 15.76603516 63.22859375 15.1328125 64.6015625 C8.00664156 78.73740022 -3.11515648 88.13759105 -18.140625 93.19140625 C-31.8070992 97.01283743 -46.5108766 95.63487654 -59.17578125 89.3203125 C-73.03101496 81.20310487 -81.59473659 70.08830056 -85.88671875 54.73046875 C-86.12648438 53.79074219 -86.36625 52.85101563 -86.61328125 51.8828125 C-86.80535156 51.23054688 -86.99742187 50.57828125 -87.1953125 49.90625 C-89.8424412 37.09117835 -86.37590064 24.08849636 -79.36328125 13.2890625 C-70.67863484 1.34767369 -59.21325734 -7.86899607 -44.4375 -10.75390625 C-27.8140677 -12.89219007 -13.87205548 -9.57980513 0 0 Z " fill="#252E46" transform="translate(387.61328125,214.1171875)"/>
</svg>
